<svg width="33" height="32" viewBox="0 0 33 32" fill="none" xmlns="http://www.w3.org/2000/svg">
<path d="M2.00303 15.0007C2.00303 15.0007 -1.99697 5.50067 11.503 2.50067C25.003 -0.49933 26.003 15.5007 26.003 15.5007C23.9181 22.3217 22.2767 25.6887 13.503 26.0007C6.39231 24.7814 3.72736 22.348 2.00303 15.0007Z" fill="white"/>
<path d="M22.944 24.5454L30.0448 31.5681C30.3068 31.8272 30.6377 31.95 30.9824 31.95C31.3271 31.95 31.658 31.8272 31.9199 31.5681C32.4439 31.05 32.4439 30.2318 31.9199 29.7136L24.8192 22.6909C26.8322 20.2909 28.0318 17.2091 28.0318 13.8681C28.0318 7.67719 23.9092 2.4272 18.2424 0.654498L15.5951 27.6272L18.2424 27.0818C19.9796 26.5363 21.5652 25.6772 22.944 24.5454ZM25.3845 13.8681C25.3845 20.0727 20.283 25.1045 14.0233 25.1045C7.76358 25.1045 2.66208 20.0591 2.66208 13.8681C2.66208 7.67719 7.76358 2.6318 14.0233 2.6318C20.283 2.6318 25.3845 7.66359 25.3845 13.8681ZM15.5951 27.6272L18.2424 0.654498C16.4199 0.123047 15.5813 0.0953999 15.5813 0.0953999C15.0574 0.0408999 14.5334 0 14.0095 0C6.56397 0 0.483574 5.7681 0.0285744 13.0227C0.0285744 13.0227 -0.0800781 13.623 0.125075 15.6409C0.330228 17.6587 0.877532 19.0261 1.69687 20.4681C2.51622 21.9101 3.58577 23.0863 3.58577 23.0863C6.15037 25.9227 9.87308 27.7227 14.0233 27.7227C14.561 27.7227 15.5951 27.6272 15.5951 27.6272Z" fill="#3C75F1"/>
<path d="M4.74023 13.7228C4.74023 14.4455 5.33304 15.0319 6.06384 15.0319C6.79464 15.0319 7.38744 14.4455 7.38744 13.7228C7.38744 10.4228 10.1036 7.7364 13.4403 7.7364C14.1711 7.7364 14.7639 7.1501 14.7639 6.4273C14.7639 5.7046 14.1711 5.1182 13.4403 5.1182C8.64213 5.1046 4.74023 8.9773 4.74023 13.7228Z" fill="#3C75F1"/>
</svg>
