<svg width="91" height="90" viewBox="0 0 91 90" fill="none" xmlns="http://www.w3.org/2000/svg">
<path d="M15.1665 78.9546C12.602 78.9546 10.52 81.0137 10.52 83.55C10.52 86.0864 12.602 88.1455 15.1665 88.1455C17.7311 88.1455 19.8131 86.0864 19.8131 83.55C19.8131 81.0137 17.7311 78.9546 15.1665 78.9546ZM15.1665 85.5137C14.0635 85.5137 13.1811 84.6273 13.1811 83.55C13.1811 82.4728 14.0773 81.5864 15.1665 81.5864C16.2558 81.5864 17.152 82.4728 17.152 83.55C17.152 84.6273 16.2696 85.5137 15.1665 85.5137Z" fill="#3C75F1"/>
<path d="M9.19644 79.6089C9.92746 79.6089 10.5201 79.0228 10.5201 78.2998C10.5201 77.5768 9.92746 76.9907 9.19644 76.9907C8.46541 76.9907 7.8728 77.5768 7.8728 78.2998C7.8728 79.0228 8.46541 79.6089 9.19644 79.6089Z" fill="#3C75F1"/>
<path d="M82.2308 70.1727C80.1074 69.4499 78.4805 67.8272 77.7497 65.7409C77.5705 65.209 77.0603 64.8545 76.495 64.8545C75.9297 64.8545 75.4196 65.209 75.2403 65.7409C74.5096 67.8409 72.8688 69.4499 70.7593 70.1727C70.2215 70.3499 69.863 70.8545 69.863 71.4136C69.863 71.9727 70.2215 72.4772 70.7593 72.6545C72.8826 73.3772 74.5096 74.9863 75.2403 77.0863C75.4196 77.6181 75.9297 77.9727 76.495 77.9727C77.0603 77.9727 77.5705 77.6181 77.7497 77.0863C78.4805 74.9863 80.1212 73.3772 82.2308 72.6545C82.7685 72.4772 83.127 71.9727 83.127 71.4136C83.127 70.8545 82.7685 70.3499 82.2308 70.1727ZM76.495 73.7863C75.8332 72.859 75.0197 72.0545 74.0821 71.3999C75.0197 70.7454 75.8332 69.9409 76.495 69.0136C77.1568 69.9409 77.9703 70.7454 78.9079 71.3999C77.9703 72.0545 77.1568 72.859 76.495 73.7863Z" fill="#3C75F1"/>
<path d="M67.2572 11.0454H71.1868C71.9175 11.0454 72.5104 10.4591 72.5104 9.73634C72.5104 9.01361 71.9175 8.42725 71.1868 8.42725H67.2572C66.5265 8.42725 65.9336 9.01361 65.9336 9.73634C65.9336 10.4591 66.5265 11.0454 67.2572 11.0454Z" fill="#3C75F1"/>
<path d="M57.9228 11.0454H61.8523C62.5831 11.0454 63.1759 10.4591 63.1759 9.73634C63.1759 9.01361 62.5831 8.42725 61.8523 8.42725H57.9228C57.192 8.42725 56.5991 9.01361 56.5991 9.73634C56.5991 10.4591 57.192 11.0454 57.9228 11.0454Z" fill="#3C75F1"/>
<path d="M64.5548 17.6046C65.2856 17.6046 65.8785 17.0183 65.8785 16.2956V12.4092C65.8785 11.6865 65.2856 11.1001 64.5548 11.1001C63.8241 11.1001 63.2312 11.6865 63.2312 12.4092V16.2956C63.2312 17.0183 63.8241 17.6046 64.5548 17.6046Z" fill="#3C75F1"/>
<path d="M64.5548 8.37267C65.2856 8.37267 65.8785 7.78631 65.8785 7.06358V3.16358C65.8785 2.44086 65.2856 1.85449 64.5548 1.85449C63.8241 1.85449 63.2312 2.44086 63.2312 3.16358V7.04995C63.2312 7.77267 63.8241 8.37267 64.5548 8.37267Z" fill="#3C75F1"/>
<path d="M41.7222 39.1363C42.4529 39.1363 43.0458 38.55 43.0458 37.8272V20.2363C43.0458 19.5136 42.4529 18.9272 41.7222 18.9272H27.4655C26.7347 18.9272 26.1418 19.5136 26.1418 20.2363V37.8272C26.1418 38.55 26.7347 39.1363 27.4655 39.1363H41.7222ZM28.7891 21.5454H40.3985V36.5182H28.7891V21.5454Z" fill="#3C75F1"/>
<path d="M59.136 59.6592H28.1271C27.3963 59.6592 26.8035 60.2455 26.8035 60.9683C26.8035 61.691 27.3963 62.2774 28.1271 62.2774H59.136C59.8668 62.2774 60.4597 61.691 60.4597 60.9683C60.4597 60.2455 59.8668 59.6592 59.136 59.6592Z" fill="#3C75F1"/>
<path d="M59.136 67.1045H28.1271C27.3963 67.1045 26.8035 67.6909 26.8035 68.4136C26.8035 69.1363 27.3963 69.7227 28.1271 69.7227H59.136C59.8668 69.7227 60.4597 69.1363 60.4597 68.4136C60.4597 67.6909 59.8668 67.1045 59.136 67.1045Z" fill="#3C75F1"/>
<path d="M72.4552 56.2772L79.556 63.2999C79.818 63.559 80.1489 63.6818 80.4936 63.6818C80.8383 63.6818 81.1692 63.559 81.4311 63.2999C81.9551 62.7818 81.9551 61.9636 81.4311 61.4454L74.3304 54.4227C76.3434 52.0227 77.543 48.9409 77.543 45.5999C77.543 39.409 73.4204 34.159 67.7536 32.3863V28.1045C67.7536 27.7499 67.6157 27.4227 67.3675 27.1772L52.7661 12.7363C52.518 12.4909 52.1733 12.3545 51.8286 12.3545H20.8334C20.1026 12.3545 19.5098 12.9409 19.5098 13.6636V76.6636C19.5098 77.3863 20.1026 77.9727 20.8334 77.9727H66.4299C67.1607 77.9727 67.7536 77.3863 67.7536 76.6636V58.8136C69.4908 58.2681 71.0764 57.409 72.4552 56.2772ZM74.8957 45.5999C74.8957 51.8045 69.7942 56.8363 63.5345 56.8363C57.2748 56.8363 52.1733 51.7909 52.1733 45.5999C52.1733 39.409 57.2748 34.3636 63.5345 34.3636C69.7942 34.3636 74.8957 39.3954 74.8957 45.5999ZM53.166 16.8409L63.2311 26.7954H53.166V16.8409ZM65.1063 75.3545H22.157V14.9863H50.5049V28.1045C50.5049 28.8272 51.0978 29.4136 51.8286 29.4136H65.0925V31.8272C64.5686 31.7727 64.0446 31.7318 63.5207 31.7318C56.0752 31.7318 49.9948 37.4999 49.5398 44.7545H28.1272C27.3964 44.7545 26.8036 45.3409 26.8036 46.0636C26.8036 46.7863 27.3964 47.3727 28.1272 47.3727H49.6363C49.8569 49.1045 50.3946 50.7272 51.2081 52.1999H28.1272C27.3964 52.1999 26.8036 52.7863 26.8036 53.509C26.8036 54.2318 27.3964 54.8181 28.1272 54.8181H53.097C55.6616 57.6545 59.3843 59.4545 63.5345 59.4545C64.0722 59.4545 64.5961 59.4136 65.1063 59.359V75.3545Z" fill="#3C75F1"/>
<path d="M54.8206 45.6002C54.8206 46.3229 55.4134 46.9093 56.1442 46.9093C56.875 46.9093 57.4678 46.3229 57.4678 45.6002C57.4678 42.3002 60.184 39.6138 63.5207 39.6138C64.2515 39.6138 64.8443 39.0275 64.8443 38.3047C64.8443 37.582 64.2515 36.9956 63.5207 36.9956C58.7225 36.982 54.8206 40.8547 54.8206 45.6002Z" fill="#3C75F1"/>
</svg>
