<svg width="91" height="90" viewBox="0 0 91 90" fill="none" xmlns="http://www.w3.org/2000/svg">
<path d="M15.166 78.9551C12.6015 78.9551 10.5195 81.0142 10.5195 83.5505C10.5195 86.0869 12.6015 88.146 15.166 88.146C17.7306 88.146 19.8126 86.0869 19.8126 83.5505C19.8126 81.0142 17.7306 78.9551 15.166 78.9551ZM15.166 85.5142C14.063 85.5142 13.1806 84.6278 13.1806 83.5505C13.1806 82.4733 14.0768 81.5869 15.166 81.5869C16.2553 81.5869 17.1515 82.4733 17.1515 83.5505C17.1515 84.6278 16.2691 85.5142 15.166 85.5142Z" fill="#3C75F1"/>
<path d="M9.19669 79.6084C9.92771 79.6084 10.5203 79.0223 10.5203 78.2993C10.5203 77.5763 9.92771 76.9902 9.19669 76.9902C8.46566 76.9902 7.87305 77.5763 7.87305 78.2993C7.87305 79.0223 8.46566 79.6084 9.19669 79.6084Z" fill="#3C75F1"/>
<path d="M82.2311 70.1727C80.1077 69.4499 78.4808 67.8272 77.75 65.7409C77.5708 65.209 77.0606 64.8545 76.4953 64.8545C75.93 64.8545 75.4199 65.209 75.2406 65.7409C74.5099 67.8409 72.8691 69.4499 70.7596 70.1727C70.2218 70.3499 69.8633 70.8545 69.8633 71.4136C69.8633 71.9727 70.2218 72.4772 70.7596 72.6545C72.8829 73.3772 74.5099 74.9863 75.2406 77.0863C75.4199 77.6181 75.93 77.9727 76.4953 77.9727C77.0606 77.9727 77.5708 77.6181 77.75 77.0863C78.4808 74.9863 80.1215 73.3772 82.2311 72.6545C82.7688 72.4772 83.1273 71.9727 83.1273 71.4136C83.1273 70.8545 82.7688 70.3499 82.2311 70.1727ZM76.4953 73.7863C75.8335 72.859 75.02 72.0545 74.0824 71.3999C75.02 70.7454 75.8335 69.9409 76.4953 69.0136C77.1571 69.9409 77.9706 70.7454 78.9082 71.3999C77.9706 72.0545 77.1571 72.859 76.4953 73.7863Z" fill="#3C75F1"/>
<path d="M67.2572 11.0459H71.1868C71.9175 11.0459 72.5104 10.4596 72.5104 9.73682C72.5104 9.01409 71.9175 8.42773 71.1868 8.42773H67.2572C66.5265 8.42773 65.9336 9.01409 65.9336 9.73682C65.9336 10.4596 66.5265 11.0459 67.2572 11.0459Z" fill="#3C75F1"/>
<path d="M57.9223 11.0459H61.8518C62.5826 11.0459 63.1754 10.4596 63.1754 9.73682C63.1754 9.01409 62.5826 8.42773 61.8518 8.42773H57.9223C57.1915 8.42773 56.5986 9.01409 56.5986 9.73682C56.5986 10.4596 57.1915 11.0459 57.9223 11.0459Z" fill="#3C75F1"/>
<path d="M64.555 17.6051C65.2858 17.6051 65.8787 17.0188 65.8787 16.2961V12.4097C65.8787 11.687 65.2858 11.1006 64.555 11.1006C63.8243 11.1006 63.2314 11.687 63.2314 12.4097V16.2961C63.2314 17.0188 63.8243 17.6051 64.555 17.6051Z" fill="#3C75F1"/>
<path d="M64.555 8.37267C65.2858 8.37267 65.8787 7.78631 65.8787 7.06358V3.16358C65.8787 2.44086 65.2858 1.85449 64.555 1.85449C63.8243 1.85449 63.2314 2.44086 63.2314 3.16358V7.04995C63.2314 7.77267 63.8243 8.37267 64.555 8.37267Z" fill="#3C75F1"/>
<path d="M41.722 39.1359C42.4527 39.1359 43.0456 38.5496 43.0456 37.8268V20.2359C43.0456 19.5132 42.4527 18.9268 41.722 18.9268H27.4653C26.7345 18.9268 26.1416 19.5132 26.1416 20.2359V37.8268C26.1416 38.5496 26.7345 39.1359 27.4653 39.1359H41.722ZM28.7889 21.545H40.3983V36.5178H28.7889V21.545Z" fill="#3C75F1"/>
<path d="M59.1362 59.6592H28.1273C27.3965 59.6592 26.8037 60.2455 26.8037 60.9683C26.8037 61.691 27.3965 62.2774 28.1273 62.2774H59.1362C59.867 62.2774 60.4599 61.691 60.4599 60.9683C60.4599 60.2455 59.867 59.6592 59.1362 59.6592Z" fill="#3C75F1"/>
<path d="M59.1362 67.1045H28.1273C27.3965 67.1045 26.8037 67.6909 26.8037 68.4136C26.8037 69.1363 27.3965 69.7227 28.1273 69.7227H59.1362C59.867 69.7227 60.4599 69.1363 60.4599 68.4136C60.4599 67.6909 59.867 67.1045 59.1362 67.1045Z" fill="#3C75F1"/>
<path d="M59.1362 44.6592H28.1273C27.3965 44.6592 26.8037 45.2455 26.8037 45.9683C26.8037 46.691 27.3965 47.2774 28.1273 47.2774H59.1362C59.867 47.2774 60.4599 46.691 60.4599 45.9683C60.4599 45.2455 59.867 44.6592 59.1362 44.6592Z" fill="#3C75F1"/>
<path d="M59.1362 52.1045H28.1273C27.3965 52.1045 26.8037 52.6909 26.8037 53.4136C26.8037 54.1363 27.3965 54.7227 28.1273 54.7227H59.1362C59.867 54.7227 60.4599 54.1363 60.4599 53.4136C60.4599 52.6909 59.867 52.1045 59.1362 52.1045Z" fill="#3C75F1"/>
<path d="M67.7536 58.8136V28.1045C67.7536 27.7499 67.6157 27.4227 67.3675 27.1772L52.7661 12.7363C52.518 12.4909 52.1733 12.3545 51.8286 12.3545H20.8334C20.1026 12.3545 19.5098 12.9409 19.5098 13.6636V76.6636C19.5098 77.3863 20.1026 77.9727 20.8334 77.9727H66.4299C67.1607 77.9727 67.7536 77.3863 67.7536 76.6636V58.8136ZM53.166 16.8409L63.2311 26.7954H53.166V16.8409ZM65.1063 75.3545H22.157V14.9863H50.5049V28.1045C50.5049 28.8272 51.0978 29.4136 51.8286 29.4136H65.0925L65.1063 59.359V75.3545Z" fill="#3C75F1"/>
</svg>
