<svg width="90" height="90" viewBox="0 0 90 90" fill="none" xmlns="http://www.w3.org/2000/svg">
<g clip-path="url(#clip0_26_16221)">
<path d="M85.8611 17.3833C83.5789 17.3833 81.7222 19.24 81.7222 21.5222C81.7222 23.8045 83.5789 25.6612 85.8611 25.6612C88.1433 25.6612 90.0001 23.8045 90.0001 21.5222C90.0001 19.24 88.1433 17.3833 85.8611 17.3833ZM85.8611 23.0193C85.0356 23.0193 84.364 22.3477 84.364 21.5222C84.364 20.6967 85.0356 20.0252 85.8611 20.0252C86.6866 20.0252 87.3582 20.6967 87.3582 21.5222C87.3582 22.3477 86.6866 23.0193 85.8611 23.0193Z" fill="#3C75F1"/>
<path d="M4.13894 65.2891C1.85671 65.2891 0 67.1458 0 69.428C0 71.7102 1.85671 73.5669 4.13894 73.5669C6.42117 73.5669 8.27789 71.7102 8.27789 69.428C8.27789 67.1458 6.42117 65.2891 4.13894 65.2891ZM4.13894 70.9251C3.31344 70.9251 2.64188 70.2535 2.64188 69.428C2.64188 68.6025 3.31344 67.9309 4.13894 67.9309C4.96444 67.9309 5.63601 68.6025 5.63601 69.428C5.63601 70.2535 4.96444 70.9251 4.13894 70.9251Z" fill="#3C75F1"/>
<path d="M73.2679 15.8861H75.9098V12.9801H78.8158V10.3382H75.9098V7.43213H73.2679V10.3382H70.3618V12.9801H73.2679V15.8861Z" fill="#3C75F1"/>
<path d="M20.9591 70.8374H18.3172V73.7435H15.4111V76.3853H18.3172V79.2914H20.9591V76.3853H23.8651V73.7435H20.9591V70.8374Z" fill="#3C75F1"/>
<path d="M73.0921 18.7924H35.844L30.208 10.3384H8.4541V63.7043H28.0921V61.0625H11.4669L19.2604 29.8883H78.5335L70.7399 61.0625H66.1351V63.7043H72.8023L81.9168 27.2464H73.0921V18.7924ZM28.7941 12.9803L32.6689 18.7924H11.096V12.9803H28.7941ZM17.1978 27.2464L11.096 51.6531V21.4343H70.4502V27.2464H17.1978Z" fill="#3C75F1"/>
<path d="M45.0002 38.5181C38.0564 38.5181 32.4072 44.1673 32.4072 51.111C32.4072 58.0548 38.0564 63.704 45.0002 63.704C51.9439 63.704 57.5931 58.0548 57.5931 51.111C57.5931 44.1673 51.9439 38.5181 45.0002 38.5181ZM45.0002 61.0621C39.5132 61.0621 35.0491 56.598 35.0491 51.111C35.0491 45.624 39.5132 41.1599 45.0002 41.1599C50.4872 41.1599 54.9513 45.624 54.9513 51.111C54.9513 56.598 50.4872 61.0621 45.0002 61.0621Z" fill="#3C75F1"/>
<path d="M63.2289 51.1113C63.2289 41.0598 55.0514 32.8823 45 32.8823C34.9485 32.8823 26.771 41.0596 26.771 51.1113C26.771 61.1629 34.9485 69.3402 45 69.3402C48.467 69.3402 51.711 68.367 54.4734 66.6799L70.362 82.5685L76.457 76.4735L60.5684 60.5849C62.2557 57.8222 63.2289 54.5783 63.2289 51.1113ZM29.4129 51.1113C29.4129 42.5165 36.4052 35.5242 45 35.5242C53.5947 35.5242 60.587 42.5165 60.587 51.1113C60.587 59.706 53.5947 66.6984 45 66.6984C36.4052 66.6984 29.4129 59.706 29.4129 51.1113ZM70.362 78.8322L60.9581 69.4283L63.317 67.0695L72.721 76.4733L70.362 78.8322ZM61.4488 65.2013L59.09 67.5602L56.6501 65.1203C57.5061 64.4072 58.2958 63.6174 59.009 62.7614L61.4488 65.2013Z" fill="#3C75F1"/>
<path d="M45.1937 44.1588C44.0505 44.1065 42.9669 44.5114 42.1414 45.2999C41.3277 46.0772 40.8608 47.1682 40.8608 48.2933H43.5027C43.5027 47.8803 43.6674 47.4958 43.9661 47.2105C44.2645 46.9256 44.659 46.778 45.0722 46.798C45.8223 46.8326 46.4606 47.4708 46.4951 48.221C46.5185 48.7293 46.2867 49.2104 45.8751 49.5081C44.4999 50.5025 43.6788 52.1554 43.6788 53.9293H46.3207C46.3207 53.0006 46.7329 52.148 47.4233 51.6489C48.5591 50.8274 49.1988 49.5007 49.1343 48.0996C49.0371 45.987 47.3061 44.2558 45.1937 44.1588Z" fill="#3C75F1"/>
<path d="M43.6792 55.3384H46.3211V58.1564H43.6792V55.3384Z" fill="#3C75F1"/>
<path d="M14.002 14.5654H16.82V17.2073H14.002V14.5654Z" fill="#3C75F1"/>
<path d="M19.6382 14.5654H22.4562V17.2073H19.6382V14.5654Z" fill="#3C75F1"/>
<path d="M25.2739 14.5654H28.0919V17.2073H25.2739V14.5654Z" fill="#3C75F1"/>
</g>
<defs>
<clipPath id="clip0_26_16221">
<rect width="90" height="90" fill="white"/>
</clipPath>
</defs>
</svg>
