<svg width="34" height="34" viewBox="0 0 34 34" fill="none" xmlns="http://www.w3.org/2000/svg">
<path d="M28.3333 16.2917C28.3333 9.64042 22.9429 4.25 16.2917 4.25C9.64042 4.25 4.25 9.64042 4.25 16.2917C4.25 22.9429 9.64042 28.3333 16.2917 28.3333" stroke="#3C75F1" stroke-width="2" stroke-linecap="round" stroke-linejoin="round"/>
<path d="M27.2992 27.2992L29.75 29.75" stroke="#3C75F1" stroke-width="2" stroke-linecap="round" stroke-linejoin="round"/>
<path d="M27.2961 22.2873C28.6792 23.6704 28.6792 25.9128 27.2961 27.296C25.913 28.6791 23.6705 28.6791 22.2874 27.296C20.9043 25.9128 20.9043 23.6704 22.2874 22.2873C23.6705 20.9042 25.913 20.9042 27.2961 22.2873" stroke="#3C75F1" stroke-width="2" stroke-linecap="round" stroke-linejoin="round"/>
<path d="M5.50659 21.6481H5.58876C9.60217 21.6481 12.2783 21.4186 12.2783 17.6347C12.2783 13.6213 16.2917 13.6213 16.2917 10.9452C16.2917 7.95317 10.9395 8.26909 10.9395 5.59301V5.49667" stroke="#3C75F1" stroke-width="2" stroke-linecap="round" stroke-linejoin="round"/>
<path d="M28.3333 16.2917H23.987C21.0049 16.2917 19.4225 12.7684 21.403 10.5386L24.2802 7.30008" stroke="#3C75F1" stroke-width="2" stroke-linecap="round" stroke-linejoin="round"/>
</svg>
