<svg width="512" height="512" viewBox="0 0 512 512" fill="none" xmlns="http://www.w3.org/2000/svg">
<path d="M54.2559 158.597C47.8531 172.053 42.7197 186.129 38.9285 200.626C38.8198 201.063 38.8424 201.524 38.9933 201.947C39.1441 202.37 39.4159 202.733 39.7716 202.989C40.1273 203.244 40.5496 203.379 40.981 203.374C41.4125 203.37 41.8321 203.226 42.1827 202.963C44.0986 201.545 45.7905 200.312 45.7905 200.312C50.8073 196.57 56.0539 193.037 61.3773 189.831C71.945 183.422 83.0313 177.999 94.508 173.622C117.592 164.962 141.806 160.045 166.311 159.041C171.231 158.807 176.032 158.69 180.713 158.69C199.276 158.473 217.791 160.716 235.815 165.367C260.785 172.086 284.932 181.792 307.777 194.295C313.318 197.334 318.859 200.571 324.218 203.715C332.471 208.543 340.996 213.543 349.638 217.827C371.768 228.808 406.467 236.366 430.343 227.014C435.677 225.075 440.566 221.995 444.698 217.97C448.831 213.944 452.115 209.062 454.342 203.635C455.349 194.71 454.682 185.665 452.379 177.007C451.799 174.584 451.043 172.212 450.115 169.911C427.882 114.296 385.682 70.016 332.578 46.5802C320.564 42.0033 308.24 38.3721 295.709 35.7169C259.626 27.9552 222.256 29.7953 187.029 41.0684C151.803 52.3415 119.847 72.6866 94.0953 100.237L92.5154 101.957C91.1595 103.432 89.8528 104.892 88.5951 106.334C88.0056 107 87.4161 107.666 86.862 108.344C85.8598 109.522 84.893 110.693 83.9144 111.864C82.7707 113.262 81.6467 114.672 80.5424 116.094L79.776 117.08C78.1725 119.164 76.6005 121.285 75.0599 123.443L74.211 124.633C73.2442 125.995 72.2892 127.364 71.3577 128.745C70.1787 130.49 69.0409 132.204 67.9857 133.85L67.8265 134.097C62.7405 141.906 58.2087 150.095 54.2677 158.597" fill="#005FAA"/>
<path d="M145.177 300.19C166.248 272.988 192.682 250.859 222.674 235.312C240.206 227.697 258.652 222.632 277.499 220.257C277.968 220.252 278.416 220.054 278.745 219.704C279.074 219.354 279.257 218.882 279.253 218.392C279.249 217.901 279.059 217.432 278.724 217.088C278.39 216.744 277.939 216.553 277.47 216.557C244.746 212.205 206.168 212.106 178.82 220.004C91.808 245.134 54.0614 300.769 47.3586 342.989C47.1661 344.567 47.19 346.166 47.4293 347.736C47.7032 349.192 48.1282 350.613 48.6968 351.972C59.519 377.013 74.2075 400.021 92.1735 420.074C92.3511 420.259 92.5767 420.387 92.8225 420.439C93.0684 420.492 93.3237 420.469 93.5569 420.372C93.7902 420.275 93.9911 420.109 94.135 419.893C94.2789 419.678 94.3593 419.424 94.3665 419.161C95.9169 382.503 114.41 338.797 145.118 300.171" fill="#005FAA"/>
<path d="M46.8221 347.441C46.9872 347.872 47.1464 348.304 47.3232 348.735C47.1523 348.304 46.9931 347.878 46.8221 347.441Z" fill="#005FAA"/>
<path d="M276.462 454.045C299.406 435.635 316.602 418.471 331.398 389.882C353.947 347.675 363.485 299.216 358.711 251.126C358.526 249.26 357.761 247.509 356.534 246.141C355.306 244.774 353.683 243.865 351.914 243.555C307.942 235.818 266.9 240.608 232.796 257.544C165.957 290.732 107.312 380.702 113.573 438.804L116.809 444.353C130.256 454.338 145.085 462.112 160.781 467.405C193.794 479.976 246.096 478.41 276.462 454.045Z" fill="#005FAA"/>
<path d="M113.974 442.028C114.893 442.799 115.825 443.557 116.75 444.31C115.819 443.553 114.893 442.789 113.974 442.016" fill="#005FAA"/>
<path d="M254.042 195.269C254.471 195.301 254.896 195.169 255.239 194.898C255.581 194.627 255.817 194.234 255.903 193.794C255.989 193.354 255.919 192.896 255.705 192.506C255.492 192.115 255.15 191.82 254.744 191.674C241.112 186.561 227.071 182.73 212.788 180.225C140.219 170.873 65.4508 195.928 33.2751 240.029C32.3208 241.348 31.7517 242.929 31.6362 244.579C30.105 265.517 31.3409 286.577 35.3089 307.163C35.3866 307.526 35.573 307.855 35.8411 308.101C36.1092 308.347 36.445 308.497 36.8001 308.53C37.1552 308.563 37.5111 308.477 37.8164 308.284C38.1216 308.092 38.3604 307.802 38.4982 307.459C61.389 251.287 104.913 216.052 171.139 199.948C198.435 194.328 226.352 192.759 254.066 195.287" fill="#005FAA"/>
<path d="M479.656 218.943C472.469 219.56 457.667 231.81 449.207 244.129L448.688 244.69C433.744 256.755 415.634 253.784 394.665 250.349C391.8 249.881 388.882 249.406 385.917 248.956C385.367 248.873 384.806 248.92 384.275 249.094C383.745 249.269 383.259 249.567 382.854 249.965C382.449 250.363 382.135 250.852 381.936 251.394C381.736 251.937 381.656 252.52 381.702 253.099C385.569 304.54 375.295 356.066 352.09 401.603C339.828 425.345 323.965 446.849 305.118 465.278C303.681 466.684 302.743 468.559 302.458 470.596C302.173 472.632 302.558 474.71 303.549 476.488C304.539 478.266 306.078 479.64 307.913 480.385C309.748 481.129 311.77 481.2 313.648 480.586C317.492 479.298 321.312 477.886 325.061 476.394C407.64 443.373 466.344 357.268 467.812 267.002V266.194L468.248 265.528C476.199 251.911 480.594 236.349 480.994 220.398C481.013 220.199 480.989 219.997 480.923 219.808C480.858 219.619 480.753 219.448 480.616 219.307C480.488 219.175 480.335 219.073 480.166 219.008C479.997 218.944 479.817 218.917 479.638 218.931M436.751 341.251C435.58 344.75 433.285 347.717 430.257 349.646C427.229 351.574 423.656 352.346 420.145 351.828C416.635 351.311 413.404 349.537 411.004 346.809C408.604 344.08 407.182 340.566 406.981 336.864C406.78 333.163 407.812 329.502 409.902 326.507C411.991 323.512 415.009 321.367 418.441 320.438C421.873 319.508 425.507 319.852 428.724 321.409C431.941 322.967 434.542 325.643 436.084 328.982C436.965 330.879 437.477 332.941 437.592 335.046C437.706 337.152 437.42 339.261 436.751 341.251Z" fill="#005FAA"/>
</svg>
