<svg width="34" height="32" viewBox="0 0 34 32" fill="none" xmlns="http://www.w3.org/2000/svg">
<path d="M1.75453 9.07252C1.27174 10.031 0.884842 11.0318 0.597149 12.0619C0.574002 12.1467 0.626911 12.2314 0.709581 12.251C0.755876 12.264 0.802171 12.251 0.841853 12.2282C0.987353 12.1271 1.11301 12.0391 1.11301 12.0391C1.48999 11.7718 1.8868 11.5208 2.29023 11.2926C3.08718 10.8362 3.9238 10.4515 4.79018 10.1385C6.53287 9.5224 8.35823 9.17358 10.2067 9.10186C10.5771 9.08556 10.9408 9.07578 11.2947 9.07578C12.6935 9.05948 14.0922 9.21922 15.4513 9.55174C17.3362 10.031 19.155 10.7188 20.8811 11.6088C21.2978 11.824 21.7177 12.0554 22.1212 12.2771C22.7428 12.6194 23.3877 12.9747 24.0391 13.2812C25.709 14.0636 28.3247 14.5982 30.1269 13.9332C30.9404 13.6561 31.5985 13.0497 31.9358 12.2706C32.0118 11.6349 31.9622 10.9927 31.787 10.3765C31.744 10.2037 31.6878 10.0342 31.615 9.87122C29.9385 5.91686 26.754 2.76772 22.7495 1.10187C21.8434 0.775867 20.9142 0.518328 19.9684 0.329249C14.4361 -0.785665 8.70544 0.942126 4.75711 4.92257L4.63807 5.04644C4.53556 5.15076 4.43635 5.25508 4.34376 5.35614C4.30077 5.40504 4.25448 5.45068 4.21149 5.49958C4.13543 5.58434 4.06268 5.66584 3.98993 5.7506C3.90396 5.8484 3.81798 5.94946 3.73531 6.05052L3.67909 6.12224C3.55674 6.26894 3.441 6.42216 3.32196 6.57538L3.25913 6.66014C3.18638 6.75794 3.11363 6.85574 3.04419 6.95354C2.9549 7.07741 2.86893 7.19803 2.78956 7.31539L2.77634 7.33169C2.39275 7.88589 2.05214 8.46943 1.75453 9.07252Z" fill="#3C75F1"/>
<path d="M8.61285 19.1426C10.2034 17.2095 12.1974 15.6349 14.4593 14.5298C15.782 13.9886 17.1742 13.6267 18.5961 13.4605C18.6689 13.4605 18.7284 13.4018 18.7284 13.3268C18.7284 13.2551 18.6689 13.1964 18.5928 13.1964C16.1226 12.8867 13.2126 12.8802 11.1525 13.4409C4.58846 15.2274 1.7413 19.185 1.23536 22.1875C1.22213 22.2983 1.22213 22.4124 1.24198 22.5265C1.26182 22.6308 1.29488 22.7319 1.33787 22.8264C2.15465 24.6064 3.26243 26.2429 4.61823 27.6675H4.7538L4.78357 27.6023C4.8993 24.9943 6.29478 21.8875 8.61285 19.1426Z" fill="#3C75F1"/>
<path d="M1.19238 22.5037L1.22875 22.595L1.19238 22.5004" fill="#3C75F1"/>
<path d="M18.5167 30.0831C20.2462 28.7726 21.5458 27.5534 22.6602 25.5192C24.3599 22.5167 25.0808 19.0709 24.7203 15.6512C24.6905 15.3774 24.4822 15.1589 24.2078 15.1133C20.891 14.5624 17.7959 14.9047 15.2232 16.1076C10.1803 18.4678 5.75577 24.8639 6.22864 28.9976L6.47335 29.392C7.48854 30.1027 8.60624 30.6536 9.79007 31.0318C12.2801 31.925 16.2251 31.8142 18.5167 30.0831Z" fill="#3C75F1"/>
<path d="M6.25841 29.229C6.32785 29.2844 6.39729 29.3366 6.46674 29.392C6.39729 29.3398 6.32785 29.2844 6.25841 29.229Z" fill="#3C75F1"/>
<path d="M16.8237 11.6805C16.8964 11.6871 16.9625 11.6316 16.9659 11.5599C16.9692 11.5012 16.9328 11.4458 16.8766 11.4263C15.8482 11.0612 14.79 10.7906 13.712 10.6113C8.23919 9.94624 2.59777 11.7294 0.170576 14.8623C0.0978264 14.9568 0.0548379 15.0677 0.0482243 15.185C-0.067514 16.6748 0.0250766 18.1712 0.325996 19.6349C0.34253 19.7034 0.408666 19.7457 0.478109 19.7294C0.517791 19.7197 0.550859 19.6936 0.567393 19.6545C2.29355 15.661 5.57721 13.1541 10.5738 12.0098C12.6339 11.6088 14.7404 11.498 16.8303 11.6773" fill="#3C75F1"/>
<path d="M33.8438 13.3659C33.3015 13.4083 32.1838 14.282 31.5456 15.1557L31.5059 15.1948C30.3783 16.0522 29.0125 15.8403 27.4319 15.5958C27.2169 15.5632 26.9954 15.5273 26.7705 15.498C26.6184 15.4751 26.4762 15.5795 26.4531 15.7294V15.7914C26.7441 19.4491 25.967 23.1133 24.2177 26.3504C23.2918 28.0391 22.0947 29.568 20.6728 30.8786C20.4082 31.1231 20.395 31.5306 20.643 31.7914C20.815 31.9739 21.0762 32.0391 21.3176 31.9674C21.6086 31.8761 21.8963 31.7751 22.1774 31.6707C28.4074 29.3236 32.8352 23.2013 32.9443 16.7824V16.7237L32.9774 16.6748C33.5759 15.7066 33.9099 14.6015 33.9397 13.467L33.9099 13.3888L33.8372 13.3627M30.6064 22.0603C30.3948 22.6536 29.7367 22.9666 29.1316 22.7612C28.5297 22.5526 28.2123 21.9038 28.4206 21.3073C28.6323 20.7139 29.2903 20.401 29.8955 20.6064C30.1832 20.7074 30.4212 20.9161 30.5535 21.1866C30.6891 21.4605 30.7056 21.7734 30.6031 22.0603" fill="#3C75F1"/>
</svg>
