<svg width="187" height="48" viewBox="0 0 187 48" fill="none" xmlns="http://www.w3.org/2000/svg">
<g clip-path="url(#clip0_1_661)">
<path d="M1.75591 9.07252C1.27312 10.031 0.886223 11.0318 0.59853 12.0619C0.575383 12.1467 0.628292 12.2314 0.710962 12.251C0.757257 12.264 0.803552 12.251 0.843234 12.2282C0.988734 12.1271 1.11439 12.0391 1.11439 12.0391C1.49137 11.7718 1.88819 11.5208 2.29162 11.2926C3.08856 10.8362 3.92518 10.4515 4.79156 10.1385C6.53425 9.5224 8.35961 9.17358 10.2081 9.10186C10.5785 9.08556 10.9422 9.07578 11.2961 9.07578C12.6948 9.05948 14.0936 9.21922 15.4527 9.55174C17.3376 10.031 19.1563 10.7188 20.8825 11.6088C21.2991 11.824 21.7191 12.0554 22.1225 12.2771C22.7442 12.6194 23.389 12.9747 24.0405 13.2812C25.7104 14.0636 28.3261 14.5982 30.1283 13.9332C30.9418 13.6561 31.5999 13.0497 31.9371 12.2706C32.0132 11.6349 31.9636 10.9927 31.7883 10.3765C31.7453 10.2037 31.6891 10.0342 31.6164 9.87122C29.9398 5.91686 26.7554 2.76772 22.7508 1.10187C21.8448 0.775867 20.9156 0.518328 19.9698 0.329249C14.4375 -0.785665 8.70682 0.942126 4.75849 4.92257L4.63945 5.04644C4.53694 5.15076 4.43773 5.25508 4.34514 5.35614C4.30215 5.40504 4.25586 5.45068 4.21287 5.49958C4.13681 5.58434 4.06406 5.66584 3.99131 5.7506C3.90534 5.8484 3.81936 5.94946 3.73669 6.05052L3.68047 6.12224C3.55812 6.26894 3.44238 6.42216 3.32334 6.57538L3.26051 6.66014C3.18776 6.75794 3.11501 6.85574 3.04557 6.95354C2.95628 7.07741 2.87031 7.19803 2.79094 7.31539L2.77772 7.33169C2.39413 7.88589 2.05353 8.46943 1.75591 9.07252Z" fill="#3C75F1"/>
<path d="M8.61423 19.1426C10.2048 17.2095 12.1988 15.6349 14.4607 14.5298C15.7834 13.9886 17.1756 13.6267 18.5975 13.4605C18.6702 13.4605 18.7298 13.4018 18.7298 13.3268C18.7298 13.2551 18.6702 13.1964 18.5942 13.1964C16.124 12.8867 13.214 12.8802 11.1539 13.4409C4.58985 15.2274 1.74268 19.185 1.23674 22.1875C1.22352 22.2983 1.22352 22.4124 1.24336 22.5265C1.2632 22.6308 1.29626 22.7319 1.33925 22.8264C2.15603 24.6064 3.26382 26.2429 4.61961 27.6675H4.75519L4.78495 27.6023C4.90069 24.9943 6.29616 21.8875 8.61423 19.1426Z" fill="#3C75F1"/>
<path d="M1.19376 22.5037L1.23013 22.595L1.19376 22.5004" fill="#3C75F1"/>
<path d="M18.5181 30.0831C20.2476 28.7726 21.5472 27.5534 22.6615 25.5192C24.3612 22.5167 25.0821 19.0709 24.7217 15.6512C24.6919 15.3774 24.4836 15.1589 24.2091 15.1133C20.8924 14.5624 17.7972 14.9047 15.2245 16.1076C10.1817 18.4678 5.75715 24.8639 6.23002 28.9976L6.47473 29.392C7.48992 30.1027 8.60762 30.6536 9.79146 31.0318C12.2815 31.925 16.2265 31.8142 18.5181 30.0831Z" fill="#3C75F1"/>
<path d="M6.25979 29.229C6.32923 29.2844 6.39867 29.3366 6.46812 29.392C6.39867 29.3398 6.32923 29.2844 6.25979 29.229Z" fill="#3C75F1"/>
<path d="M16.825 11.6805C16.8978 11.6871 16.9639 11.6316 16.9672 11.5599C16.9705 11.5012 16.9342 11.4458 16.8779 11.4263C15.8495 11.0612 14.7914 10.7906 13.7133 10.6113C8.24057 9.94624 2.59915 11.7294 0.171957 14.8623C0.0992073 14.9568 0.0562188 15.0677 0.0496052 15.185C-0.0661331 16.6748 0.0264575 18.1712 0.327377 19.6349C0.343911 19.7034 0.410047 19.7457 0.47949 19.7294C0.519172 19.7197 0.55224 19.6936 0.568774 19.6545C2.29493 15.661 5.57859 13.1541 10.5752 12.0098C12.6353 11.6088 14.7418 11.498 16.8317 11.6773" fill="#3C75F1"/>
<path d="M33.8452 13.3659C33.3029 13.4083 32.1852 14.282 31.5469 15.1557L31.5073 15.1948C30.3796 16.0522 29.0139 15.8403 27.4333 15.5958C27.2183 15.5632 26.9968 15.5273 26.7719 15.498C26.6198 15.4751 26.4776 15.5795 26.4545 15.7294V15.7914C26.7455 19.4491 25.9684 23.1133 24.2191 26.3504C23.2931 28.0391 22.0961 29.568 20.6742 30.8786C20.4096 31.1231 20.3964 31.5306 20.6444 31.7914C20.8163 31.9739 21.0776 32.0391 21.319 31.9674C21.61 31.8761 21.8977 31.7751 22.1788 31.6707C28.4088 29.3236 32.8366 23.2013 32.9457 16.7824V16.7237L32.9788 16.6748C33.5773 15.7066 33.9113 14.6015 33.9411 13.467L33.9113 13.3888L33.8386 13.3627M30.6078 22.0603C30.3962 22.6536 29.7381 22.9666 29.133 22.7612C28.5311 22.5526 28.2137 21.9038 28.422 21.3073C28.6336 20.7139 29.2917 20.401 29.8968 20.6064C30.1845 20.7074 30.4226 20.9161 30.5549 21.1866C30.6905 21.4605 30.707 21.7734 30.6045 22.0603" fill="#3C75F1"/>
<path d="M88.7117 14.683C89.211 14.683 89.6542 14.7971 90.051 15.0285C90.4445 15.26 90.7553 15.586 90.9835 16.0098C91.2117 16.4336 91.3274 16.9226 91.3274 17.4768C91.3274 18.031 91.2117 18.5297 90.9835 18.9503C90.7553 19.3708 90.4445 19.6936 90.051 19.925C89.6575 20.1565 89.211 20.2706 88.7117 20.2706C87.9214 20.2706 87.2931 20.0228 86.8202 19.5273C86.3473 19.0318 86.1126 18.3472 86.1126 17.48C86.1126 16.6129 86.3473 15.9283 86.8202 15.4328C87.2931 14.9372 87.9214 14.6895 88.7117 14.6895V14.683ZM88.1661 13.1475C87.4188 13.1475 86.7508 13.3203 86.1655 13.6691C85.5802 14.0179 85.1205 14.5167 84.7865 15.172C84.4559 15.8272 84.2872 16.5933 84.2872 17.4735C84.2872 18.3537 84.4525 19.1361 84.7865 19.7914C85.1172 20.4466 85.5769 20.9486 86.1655 21.2942C86.7508 21.643 87.4188 21.8158 88.1661 21.8158C88.9134 21.8158 89.6079 21.6267 90.1568 21.2486C90.7057 20.8704 91.0893 20.3684 91.3076 19.7457V21.7115H93.0965V10.3537H91.3076V15.2176C91.0893 14.5949 90.7057 14.0929 90.1568 13.7147C89.6079 13.3366 88.9432 13.1475 88.1661 13.1475ZM78.3449 14.683C78.8442 14.683 79.2873 14.7971 79.6841 15.0285C80.0776 15.26 80.3885 15.586 80.6167 16.0098C80.8448 16.4336 80.9606 16.9226 80.9606 17.4768C80.9606 18.031 80.8448 18.5297 80.6167 18.9503C80.3885 19.3708 80.0776 19.6936 79.6841 19.925C79.2906 20.1565 78.8442 20.2706 78.3449 20.2706C77.5545 20.2706 76.9263 20.0228 76.4534 19.5273C75.9805 19.0318 75.7457 18.3472 75.7457 17.48C75.7457 16.6129 75.9805 15.9283 76.4534 15.4328C76.9263 14.9372 77.5545 14.6895 78.3449 14.6895V14.683ZM77.7993 13.1475C77.0519 13.1475 76.3839 13.3203 75.7986 13.6691C75.2133 14.0179 74.7537 14.5167 74.4197 15.172C74.089 15.8272 73.9204 16.5933 73.9204 17.4735C73.9204 18.3537 74.0857 19.1361 74.4197 19.7914C74.7504 20.4466 75.21 20.9486 75.7986 21.2942C76.3839 21.643 77.0519 21.8158 77.7993 21.8158C78.5466 21.8158 79.241 21.6267 79.7899 21.2486C80.3389 20.8704 80.7291 20.3684 80.9573 19.7457V21.7115H82.733V13.2551H80.9573V15.2209C80.7291 14.5982 80.3389 14.0962 79.7899 13.718C79.241 13.3398 78.5764 13.1508 77.7993 13.1508V13.1475ZM69.0858 13.1182C68.3914 13.1182 67.7664 13.2975 67.2175 13.6561C66.6685 14.0147 66.2684 14.5102 66.0204 15.1459C65.7823 14.4906 65.3987 13.9918 64.8763 13.643C64.3538 13.2942 63.7321 13.1214 63.0178 13.1214C62.3036 13.1214 61.7348 13.2844 61.2288 13.6137C60.7196 13.9397 60.3558 14.4124 60.1409 15.0253V13.2616H58.3651V21.718H60.1409V17.2225C60.1409 16.3847 60.3459 15.7457 60.756 15.3121C61.166 14.8786 61.7183 14.6601 62.4127 14.6601C63.0674 14.6601 63.58 14.8623 63.9536 15.2665C64.3273 15.6707 64.5125 16.2412 64.5125 16.978V21.718H66.2883V17.2225C66.2883 16.3847 66.4933 15.7457 66.9033 15.3121C67.3134 14.8786 67.8656 14.6601 68.56 14.6601C69.2148 14.6601 69.7273 14.8623 70.101 15.2665C70.4747 15.6707 70.6599 16.2412 70.6599 16.978V21.718H72.4356V16.7922C72.4356 15.6153 72.1314 14.709 71.5262 14.0766C70.9178 13.4409 70.1076 13.1247 69.0891 13.1247L69.0858 13.1182ZM54.0663 14.9112V13.2551H52.2905V21.7115H54.0663V17.4311C54.0663 16.5705 54.3011 15.9544 54.774 15.5827C55.2468 15.2078 55.8718 15.022 56.6489 15.022H57.178V13.1182C56.4737 13.1182 55.8487 13.2779 55.3097 13.6006C54.7706 13.9234 54.354 14.3602 54.063 14.9112H54.0663ZM45.9084 14.683C46.4077 14.683 46.8508 14.7971 47.2477 15.0285C47.6412 15.26 47.952 15.586 48.1802 16.0098C48.4083 16.4336 48.5241 16.9226 48.5241 17.4768C48.5241 18.031 48.4083 18.5297 48.1802 18.9503C47.952 19.3708 47.6412 19.6936 47.2477 19.925C46.8542 20.1565 46.4077 20.2706 45.9084 20.2706C45.1181 20.2706 44.4898 20.0228 44.0169 19.5273C43.544 19.0318 43.3093 18.3472 43.3093 17.48C43.3093 16.6129 43.544 15.9283 44.0169 15.4328C44.4898 14.9372 45.1181 14.6895 45.9084 14.6895V14.683ZM45.3661 13.1475C44.6187 13.1475 43.9508 13.3203 43.3655 13.6691C42.7802 14.0179 42.3205 14.5167 41.9865 15.172C41.6558 15.8272 41.4872 16.5933 41.4872 17.4735C41.4872 18.3537 41.6525 19.1361 41.9865 19.7914C42.3172 20.4466 42.7769 20.9486 43.3655 21.2942C43.9508 21.643 44.6187 21.8158 45.3661 21.8158C46.1134 21.8158 46.8079 21.6267 47.3568 21.2486C47.9057 20.8704 48.2959 20.3684 48.5241 19.7457V21.7115H50.2998V13.2551H48.5241V15.2209C48.2959 14.5982 47.9057 14.0962 47.3568 13.718C46.8079 13.3398 46.1432 13.1508 45.3661 13.1508V13.1475Z" fill="#3C75F1"/>
<path d="M112.574 17.0302H107.703C107.746 16.2119 107.997 15.5925 108.467 15.172C108.933 14.7514 109.515 14.5428 110.209 14.5428C110.646 14.5428 111.046 14.6308 111.416 14.8101C111.783 14.9894 112.074 15.2665 112.289 15.6381C112.501 16.013 112.597 16.476 112.577 17.0269L112.574 17.0302ZM114.363 17.0758C114.363 16.339 114.194 15.6707 113.857 15.0742C113.519 14.4743 113.037 14.0049 112.408 13.6626C111.78 13.3203 111.046 13.1475 110.206 13.1475C109.366 13.1475 108.642 13.3203 108.004 13.6691C107.365 14.0179 106.866 14.5167 106.502 15.172C106.139 15.8272 105.957 16.5933 105.957 17.4735C105.957 18.3537 106.139 19.1361 106.502 19.7914C106.866 20.4466 107.365 20.9487 108.004 21.2942C108.642 21.643 109.376 21.8158 110.206 21.8158C110.924 21.8158 111.572 21.6854 112.15 21.4246C112.732 21.1638 113.202 20.802 113.566 20.3423C113.929 19.8826 114.168 19.3545 114.283 18.7612H112.385C112.293 19.2535 112.041 19.6447 111.631 19.9413C111.221 20.238 110.722 20.3879 110.13 20.3879C109.455 20.3879 108.89 20.1793 108.434 19.7588C107.977 19.3382 107.732 18.696 107.703 17.8256H114.303C114.346 17.6104 114.366 17.3594 114.366 17.0725L114.363 17.0758ZM102.627 10.3537V21.7082H104.403V10.3537H102.627ZM98.8603 10.3537V21.7082H100.636V10.3537H98.8603ZM95.0939 13.2551V21.7115H96.8696V13.2551H95.0939ZM94.8425 10.8003C94.8425 11.097 94.945 11.3382 95.1534 11.5208C95.3617 11.7033 95.6362 11.7979 95.9768 11.7979C96.3174 11.7979 96.5951 11.7066 96.8101 11.5208C97.0217 11.3382 97.1275 11.097 97.1275 10.8003C97.1275 10.5037 97.0217 10.2592 96.8101 10.0636C96.5985 9.87124 96.3207 9.77344 95.9768 9.77344C95.6329 9.77344 95.3584 9.87124 95.1534 10.0636C94.945 10.2592 94.8425 10.5037 94.8425 10.8003Z" fill="#3C75F1"/>
<path d="M123 21.7115L120.057 17.5224L122.891 13.2551H120.93L119.108 16.1695L117.054 13.2551H115.047L117.911 17.3203L115.077 21.7115H117.054L118.89 18.7188L120.993 21.7115H123Z" fill="#3C75F1"/>
</g>
<path d="M48.1622 40.0496H42.2821L41.2432 43H38.1473L43.5496 28.4971H46.8948L52.2762 43H49.1803L48.1622 40.0496ZM47.3727 37.8263L45.2118 31.6346L43.0509 37.8263H47.3727ZM56.1638 28.3309V43H53.2341V28.3309H56.1638ZM68.8866 28.1854C70.6735 28.1854 72.1556 28.6287 73.333 29.5152C74.5105 30.3879 75.2654 31.5722 75.5978 33.0682H72.5227C72.2318 32.4033 71.7678 31.877 71.1306 31.4891C70.5073 31.0874 69.7662 30.8866 68.9074 30.8866C68.0624 30.8866 67.3144 31.0805 66.6634 31.4683C66.0123 31.8562 65.5067 32.4103 65.1466 33.1306C64.7865 33.8509 64.6064 34.6958 64.6064 35.6654C64.6064 37.203 65.015 38.4012 65.8323 39.26C66.6634 40.1188 67.7923 40.5482 69.219 40.5482C70.2718 40.5482 71.1722 40.2366 71.9202 39.6132C72.682 38.9899 73.1737 38.1241 73.3954 37.016H68.4295V34.9174H75.8472V37.7432C75.6394 38.7129 75.2307 39.6063 74.6213 40.4236C74.0256 41.2408 73.2361 41.8988 72.2526 42.3974C71.283 42.8823 70.1679 43.1247 68.9074 43.1247C67.4668 43.1247 66.1924 42.813 65.0843 42.1897C63.99 41.5525 63.1381 40.6729 62.5286 39.5509C61.933 38.415 61.6352 37.1199 61.6352 35.6654C61.6352 34.211 61.933 32.9228 62.5286 31.8008C63.1381 30.6649 63.99 29.7784 65.0843 29.1412C66.1786 28.504 67.446 28.1854 68.8866 28.1854ZM82.7366 31.3437C83.8586 31.3437 84.8629 31.5791 85.7494 32.0501C86.6498 32.5211 87.3562 33.2067 87.8687 34.1071C88.3812 34.9936 88.6375 36.0394 88.6375 37.2446C88.6375 38.4497 88.3812 39.4955 87.8687 40.382C87.3562 41.2685 86.6498 41.9542 85.7494 42.439C84.8629 42.91 83.8586 43.1454 82.7366 43.1454C81.6146 43.1454 80.6034 42.91 79.7031 42.439C78.8165 41.9542 78.117 41.2685 77.6045 40.382C77.092 39.4955 76.8357 38.4497 76.8357 37.2446C76.8357 36.0394 77.092 34.9936 77.6045 34.1071C78.117 33.2067 78.8165 32.5211 79.7031 32.0501C80.6034 31.5791 81.6146 31.3437 82.7366 31.3437ZM82.7366 33.8786C81.9194 33.8786 81.2268 34.1694 80.6588 34.7512C80.0909 35.3191 79.8069 36.1503 79.8069 37.2446C79.8069 38.3389 80.0909 39.1769 80.6588 39.7587C81.2268 40.3266 81.9194 40.6106 82.7366 40.6106C83.5539 40.6106 84.2465 40.3266 84.8144 39.7587C85.3823 39.1769 85.6663 38.3389 85.6663 37.2446C85.6663 36.1503 85.3823 35.3191 84.8144 34.7512C84.2465 34.1694 83.5539 33.8786 82.7366 33.8786ZM95.0921 40.0703L98.001 31.4891H101.118L96.8582 43H93.2844L89.025 31.4891H92.1624L95.0921 40.0703ZM112.948 36.8082C112.948 37.0991 112.913 37.4316 112.844 37.8056H104.408C104.45 38.8306 104.727 39.5855 105.239 40.0703C105.752 40.5551 106.389 40.7976 107.151 40.7976C107.83 40.7976 108.391 40.6313 108.834 40.2989C109.291 39.9664 109.582 39.5163 109.707 38.9483H112.803C112.65 39.7517 112.325 40.472 111.826 41.1092C111.327 41.7464 110.683 42.2451 109.894 42.6052C109.118 42.9654 108.252 43.1454 107.296 43.1454C106.174 43.1454 105.177 42.91 104.304 42.439C103.432 41.9542 102.753 41.2685 102.268 40.382C101.783 39.4955 101.541 38.4497 101.541 37.2446C101.541 36.0394 101.783 34.9936 102.268 34.1071C102.753 33.2067 103.432 32.5211 104.304 32.0501C105.177 31.5791 106.174 31.3437 107.296 31.3437C108.432 31.3437 109.423 31.5791 110.268 32.0501C111.126 32.5211 111.784 33.1721 112.242 34.0032C112.713 34.8205 112.948 35.7555 112.948 36.8082ZM109.998 36.5173C110.039 35.5754 109.79 34.862 109.25 34.3772C108.723 33.8924 108.072 33.65 107.296 33.65C106.507 33.65 105.842 33.8924 105.302 34.3772C104.762 34.862 104.464 35.5754 104.408 36.5173H109.998ZM117.334 33.6916C117.763 32.9574 118.331 32.3826 119.038 31.967C119.744 31.5376 120.534 31.3229 121.406 31.3229V34.4603H120.555C118.408 34.4603 117.334 35.4577 117.334 37.4523V43H114.404V31.4891H117.334V33.6916ZM129.261 31.3229C130.591 31.3229 131.651 31.7592 132.44 32.6319C133.23 33.5046 133.625 34.7304 133.625 36.3096V43H130.716V36.642C130.716 35.7278 130.48 35.0213 130.009 34.5227C129.538 34.0101 128.894 33.7539 128.077 33.7539C127.246 33.7539 126.581 34.024 126.082 34.5642C125.584 35.1044 125.334 35.8801 125.334 36.8913V43H122.405V31.4891H125.334V33.7954C125.639 33.0197 126.138 32.4172 126.83 31.9878C127.537 31.5445 128.347 31.3229 129.261 31.3229ZM140.088 31.3437C141.057 31.3437 141.889 31.5722 142.581 32.0293C143.274 32.4864 143.765 33.1029 144.056 33.8786V31.4891H146.965V43H144.056V40.5898C143.765 41.3655 143.274 41.9888 142.581 42.4598C141.889 42.9169 141.057 43.1454 140.088 43.1454C139.118 43.1454 138.246 42.91 137.47 42.439C136.694 41.968 136.085 41.2893 135.641 40.4028C135.212 39.5024 134.997 38.4497 134.997 37.2446C134.997 36.0394 135.212 34.9936 135.641 34.1071C136.085 33.2067 136.694 32.5211 137.47 32.0501C138.246 31.5791 139.118 31.3437 140.088 31.3437ZM141.002 33.8993C140.088 33.8993 139.354 34.1971 138.8 34.7928C138.246 35.3884 137.968 36.2057 137.968 37.2446C137.968 38.2834 138.246 39.1007 138.8 39.6963C139.354 40.2781 140.088 40.569 141.002 40.569C141.889 40.569 142.616 40.2712 143.184 39.6756C143.765 39.0661 144.056 38.2557 144.056 37.2446C144.056 36.2195 143.765 35.4092 143.184 34.8136C142.616 34.2041 141.889 33.8993 141.002 33.8993ZM155.854 31.3229C157.183 31.3229 158.243 31.7592 159.033 32.6319C159.822 33.5046 160.217 34.7304 160.217 36.3096V43H157.308V36.642C157.308 35.7278 157.073 35.0213 156.602 34.5227C156.131 34.0101 155.487 33.7539 154.669 33.7539C153.838 33.7539 153.173 34.024 152.675 34.5642C152.176 35.1044 151.927 35.8801 151.927 36.8913V43H148.997V31.4891H151.927V33.7954C152.231 33.0197 152.73 32.4172 153.423 31.9878C154.129 31.5445 154.939 31.3229 155.854 31.3229ZM167.345 31.3437C168.827 31.3437 170.06 31.7454 171.043 32.5488C172.041 33.3522 172.664 34.4465 172.913 35.8317H169.818C169.693 35.2222 169.409 34.7443 168.966 34.398C168.522 34.0379 167.961 33.8578 167.283 33.8578C166.507 33.8578 165.856 34.1487 165.33 34.7304C164.817 35.2984 164.561 36.1364 164.561 37.2446C164.561 38.3527 164.817 39.1977 165.33 39.7794C165.856 40.3474 166.507 40.6313 167.283 40.6313C167.961 40.6313 168.522 40.4582 168.966 40.1119C169.409 39.7517 169.693 39.2669 169.818 38.6574H172.913C172.664 40.0426 172.041 41.1369 171.043 41.9403C170.06 42.7437 168.827 43.1454 167.345 43.1454C166.223 43.1454 165.226 42.91 164.353 42.439C163.48 41.9542 162.802 41.2685 162.317 40.382C161.832 39.4955 161.59 38.4497 161.59 37.2446C161.59 36.0394 161.832 34.9936 162.317 34.1071C162.802 33.2067 163.48 32.5211 164.353 32.0501C165.226 31.5791 166.223 31.3437 167.345 31.3437ZM185.197 36.8082C185.197 37.0991 185.162 37.4316 185.093 37.8056H176.657C176.699 38.8306 176.976 39.5855 177.488 40.0703C178.001 40.5551 178.638 40.7976 179.4 40.7976C180.079 40.7976 180.64 40.6313 181.083 40.2989C181.54 39.9664 181.831 39.5163 181.956 38.9483H185.052C184.899 39.7517 184.574 40.472 184.075 41.1092C183.576 41.7464 182.932 42.2451 182.143 42.6052C181.367 42.9654 180.501 43.1454 179.545 43.1454C178.423 43.1454 177.426 42.91 176.553 42.439C175.681 41.9542 175.002 41.2685 174.517 40.382C174.032 39.4955 173.79 38.4497 173.79 37.2446C173.79 36.0394 174.032 34.9936 174.517 34.1071C175.002 33.2067 175.681 32.5211 176.553 32.0501C177.426 31.5791 178.423 31.3437 179.545 31.3437C180.681 31.3437 181.672 31.5791 182.517 32.0501C183.376 32.5211 184.033 33.1721 184.491 34.0032C184.962 34.8205 185.197 35.7555 185.197 36.8082ZM182.247 36.5173C182.288 35.5754 182.039 34.862 181.499 34.3772C180.972 33.8924 180.321 33.65 179.545 33.65C178.756 33.65 178.091 33.8924 177.551 34.3772C177.011 34.862 176.713 35.5754 176.657 36.5173H182.247Z" fill="#3C75F1"/>
<defs>
<clipPath id="clip0_1_661">
<rect width="123" height="32" fill="white"/>
</clipPath>
</defs>
</svg>
